<svg width="30" height="30" viewBox="0 0 30 30" fill="none" xmlns="http://www.w3.org/2000/svg">
<path d="M16 7C14.2883 7 12.5673 7.64235 11.2622 8.92647C10.2917 9.88145 9.70329 11.0661 9.4538 12.3015C6.9212 12.7849 5 14.9612 5 17.5882C5 20.5687 7.47093 23 10.5 23H22.2174C24.8545 23 27 20.889 27 18.2941C27 15.8451 25.0826 13.8515 22.6508 13.6324C22.6621 11.929 22.0472 10.2222 20.7303 8.92647C19.4264 7.64339 17.7117 7 16 7ZM16 8.41176C17.3483 8.41176 18.6834 8.90502 19.714 9.91912C20.9049 11.0909 21.4089 12.6831 21.2235 14.2059C21.2108 14.3051 21.2197 14.4058 21.2495 14.5014C21.2794 14.597 21.3295 14.6852 21.3967 14.7603C21.4638 14.8354 21.5463 14.8956 21.6389 14.9369C21.7314 14.9782 21.8318 14.9997 21.9334 15H22.2174C24.0845 15 25.5652 16.457 25.5652 18.2941C25.5652 20.1313 24.0845 21.5882 22.2174 21.5882H10.5C8.24639 21.5882 6.43478 19.8057 6.43478 17.5882C6.43478 15.4941 8.05334 13.7881 10.1264 13.6029C10.2889 13.5874 10.4412 13.5177 10.5581 13.4053C10.675 13.293 10.7494 13.1449 10.769 12.9853C10.901 11.8664 11.4042 10.7794 12.2785 9.91912C13.3081 8.90607 14.6517 8.41176 16 8.41176ZM16 12.6471C15.7608 12.6471 15.6344 12.7228 15.5143 12.8309L12.8838 15.1838C12.5801 15.4612 12.5854 15.9113 12.839 16.1838C13.0926 16.4563 13.5771 16.476 13.8553 16.2279L15.2826 14.9485V19.4706C15.2826 19.8604 15.6037 20.1765 16 20.1765C16.3963 20.1765 16.7174 19.8604 16.7174 19.4706V14.9485L18.1447 16.2279C18.4229 16.476 18.8928 16.4424 19.161 16.1838C19.4436 15.9113 19.3919 15.4346 19.1162 15.1838L16.4857 12.8309C16.3436 12.7028 16.2392 12.6471 16 12.6471Z" fill="#9FA2AA"/>
</svg>
