<svg width="1em" height="1em" viewBox="0 0 20 20" fill="none" xmlns="http://www.w3.org/2000/svg">
<g clip-path="url(#clip0)">
<path d="M19.7143 9.69961L18.0952 7.99961L16.8571 6.59961V2.29961C16.8571 1.69961 16.381 1.09961 15.7143 1.09961H14.4762C13.8095 1.09961 13.3333 1.59961 13.3333 2.29961V2.79961L11.2381 0.499609C10.5714 -0.200391 9.42857 -0.200391 8.7619 0.499609L1.90476 7.99961L0.285714 9.69961C-0.0952381 10.1996 -0.0952381 10.8996 0.285714 11.3996C0.761905 11.8996 1.42857 11.8996 1.90476 11.3996V17.4996C1.90476 18.7996 2.95238 19.9996 4.28571 19.9996H15.7143C17.0476 19.9996 18.0952 18.7996 18.0952 17.3996V11.2996C18.5714 11.7996 19.2381 11.7996 19.7143 11.2996C20.0952 10.8996 20.0952 10.1996 19.7143 9.69961ZM15.9048 17.3996C15.9048 17.4996 15.8095 17.5996 15.7143 17.5996H4.28571C4.19048 17.5996 4.09524 17.4996 4.09524 17.3996V8.99961L10 2.59961L15.9048 8.99961V17.3996Z" fill="currentColor"/>
</g>
<defs>
<clipPath id="clip0">
<rect width="20" height="20" fill="white"/>
</clipPath>
</defs>
</svg>
