<svg width="1em" height="1em" viewBox="0 0 20 20" fill="none" xmlns="http://www.w3.org/2000/svg">
<path d="M5.5974 14.5409L8.96015 13.7627C9.08948 13.7354 9.2052 13.6671 9.2937 13.5716C9.31412 13.5511 9.33454 13.5374 9.35496 13.517L16.5093 6.12402C16.6386 5.99432 16.7067 5.81683 16.6999 5.63935C16.6999 5.45504 16.6182 5.28438 16.4889 5.1615L13.9362 2.69036C13.6639 2.43096 13.2351 2.43778 12.9764 2.70401L5.82204 10.097C5.80162 10.1174 5.788 10.1379 5.76758 10.1584C5.68589 10.2471 5.61782 10.3495 5.59059 10.4724L4.78054 13.7081C4.72608 13.9402 4.78735 14.1791 4.95753 14.3498C5.08686 14.4795 5.26385 14.5546 5.44084 14.5546C5.49529 14.5546 5.54975 14.5546 5.5974 14.5409ZM6.37342 12.9572L6.62529 11.9401L7.42853 12.7115L6.37342 12.9572ZM13.4801 4.14437L15.0594 5.66665L8.85123 12.0766L7.27877 10.5543L13.4801 4.14437Z" fill="currentColor"/>
<path d="M16.1144 15.4692H3.18072C2.80632 15.4692 2.5 15.7764 2.5 16.1519C2.5 16.5273 2.80632 16.8345 3.18072 16.8345H16.1144C16.4888 16.8345 16.7951 16.5273 16.7951 16.1519C16.7951 15.7764 16.4888 15.4692 16.1144 15.4692Z" fill="currentColor"/>
</svg>
