<svg width="1em" height="1em" viewBox="0 0 20 20" fill="none" xmlns="http://www.w3.org/2000/svg">
<path d="M5.24008 3.74462C5.61633 4.12086 6.20709 4.15742 6.67365 3.9016C7.10419 3.66553 7.56224 3.47368 8.04178 3.33242C8.55139 3.18229 8.94261 2.7394 8.94261 2.20813C8.94261 1.56474 8.37883 1.06024 7.75538 1.21915C6.90998 1.43463 6.1122 1.76899 5.38069 2.20339C4.82662 2.53243 4.78442 3.28895 5.24008 3.74462Z" fill="currentColor" stroke="currentColor" stroke-width="0.5"/>
<path d="M2.20828 8.94233C2.7395 8.94233 3.1824 8.55123 3.33252 8.04165C3.47381 7.56206 3.66563 7.10396 3.90168 6.67337C4.15746 6.20682 4.1209 5.61609 3.74467 5.23987C3.289 4.7842 2.53246 4.82644 2.20343 5.38052C1.76904 6.11201 1.43469 6.90967 1.2192 7.75496C1.06025 8.37848 1.56481 8.94233 2.20828 8.94233Z" fill="currentColor" stroke="currentColor" stroke-width="0.5"/>
<path d="M16.4448 5.4776C16.7784 5.14388 17.3335 5.18609 17.5711 5.59367C17.9677 6.27372 18.2701 7.00341 18.4703 7.76346C18.5902 8.2188 18.2283 8.64022 17.7574 8.64022C17.3892 8.64022 17.0771 8.37727 16.9761 8.0232C16.822 7.48292 16.6045 6.95996 16.3294 6.46791C16.1494 6.14592 16.1841 5.73851 16.4448 5.4776ZM17.7959 5.38033C17.4669 4.82632 16.7105 4.78412 16.2549 5.23974C15.8786 5.61602 15.8421 6.20685 16.0979 6.67346C16.334 7.10405 16.5258 7.56218 16.667 8.04177C16.8171 8.55141 17.26 8.94263 17.7913 8.94263C18.4347 8.94263 18.9392 8.37886 18.7803 7.75539C18.5648 6.90982 18.2304 6.11192 17.7959 5.38033Z" fill="currentColor" stroke="currentColor" stroke-width="0.5"/>
<path d="M11.3596 2.24221C11.3596 1.77127 11.7813 1.40939 12.2366 1.52945C12.9966 1.72982 13.7262 2.03222 14.406 2.42861C14.8136 2.66625 14.8559 3.22132 14.5222 3.55489C14.2611 3.81591 13.8533 3.8504 13.5311 3.67012C13.0394 3.39501 12.5169 3.17767 11.9769 3.02375C11.6226 2.92278 11.3595 2.61058 11.3596 2.24221ZM12.245 1.21918C11.6215 1.06025 11.0576 1.56481 11.0576 2.20827C11.0576 2.73949 11.4487 3.18239 11.9583 3.33249C12.438 3.47378 12.8962 3.66562 13.3269 3.9017C13.7935 4.15744 14.3842 4.12088 14.7604 3.74466C15.2161 3.28899 15.1738 2.53245 14.6197 2.20343C13.8882 1.76903 13.0904 1.43467 12.245 1.21918Z" fill="currentColor" stroke="currentColor" stroke-width="0.5"/>
<path d="M17.7572 11.3591C18.2282 11.3592 18.5902 11.7807 18.4702 12.2362C18.2701 12.9962 17.9677 13.7257 17.5712 14.4056C17.3335 14.8132 16.7784 14.8554 16.4447 14.5218C16.1836 14.2607 16.1491 13.8527 16.3294 13.5303C16.6044 13.0388 16.8216 12.5163 16.9755 11.9764C17.0765 11.6221 17.3888 11.359 17.7572 11.3591ZM18.7802 12.2444C18.9391 11.6209 18.4346 11.0571 17.7913 11.0571C17.26 11.0571 16.8171 11.4483 16.667 11.958C16.5257 12.4376 16.3338 12.8958 16.0977 13.3264C15.8419 13.7929 15.8785 14.3837 16.2547 14.7599C16.7104 15.2156 17.4669 15.1733 17.7959 14.6192C18.2304 13.8876 18.5648 13.0898 18.7802 12.2444Z" fill="currentColor" stroke="currentColor" stroke-width="0.5"/>
<path d="M13.5312 16.33C13.8535 16.1497 14.2614 16.1843 14.5225 16.4454C14.8562 16.779 14.8139 17.3342 14.4063 17.5719C13.7264 17.9684 12.9969 18.2708 12.237 18.4709C11.7816 18.5909 11.36 18.2289 11.36 17.7579C11.36 17.3898 11.6228 17.0777 11.9767 16.9766C12.5167 16.8225 13.0394 16.6051 13.5312 16.33ZM14.7605 16.2555C14.3842 15.8793 13.7935 15.8428 13.3269 16.0986C12.8963 16.3347 12.4382 16.5265 11.9585 16.6678C11.4488 16.8178 11.0576 17.2607 11.0576 17.792C11.0576 18.4354 11.6214 18.9399 12.2448 18.781C13.0903 18.5655 13.8882 18.2311 14.6198 17.7966C15.1739 17.4676 15.2161 16.7111 14.7605 16.2555Z" fill="currentColor" stroke="currentColor" stroke-width="0.5"/>
<path d="M3.74467 14.7599C4.1209 14.3837 4.15746 13.7929 3.90165 13.3264C3.66554 12.8958 3.47367 12.4377 3.33239 11.958C3.1823 11.4484 2.7394 11.0571 2.20812 11.0571C1.56474 11.0571 1.06024 11.6209 1.21915 12.2444C1.43464 13.0898 1.76902 13.8876 2.20345 14.6192C2.53247 15.1733 3.289 15.2156 3.74467 14.7599Z" fill="currentColor" stroke="currentColor" stroke-width="0.5"/>
<path d="M5.47741 16.4452C5.73841 16.1842 6.14613 16.1496 6.46826 16.3298C6.96024 16.605 7.48312 16.8223 8.02331 16.9763C8.37738 17.0773 8.64031 17.3893 8.64031 17.7575C8.64031 18.2284 8.2187 18.5904 7.76329 18.4703C7.00334 18.27 6.27375 17.9676 5.59379 17.5713C5.18621 17.3337 5.14383 16.7787 5.47741 16.4452ZM6.67312 16.0985C6.20658 15.8427 5.61585 15.8792 5.23962 16.2555C4.78396 16.7111 4.8262 17.4676 5.38027 17.7967C6.11181 18.2311 6.90952 18.5655 7.75487 18.7809C8.37833 18.9399 8.94212 18.4354 8.94212 17.792C8.94212 17.2607 8.55092 16.8178 8.04131 16.6677C7.56181 16.5264 7.10374 16.3346 6.67312 16.0985Z" fill="currentColor" stroke="currentColor" stroke-width="0.5"/>
</svg>
