<svg width="24" height="24" viewBox="0 0 24 24" fill="none" xmlns="http://www.w3.org/2000/svg">
<path d="M19.71 11.29C19.52 11.11 19.27 11 19 11H13V5C13 4.73 12.89 4.48 12.71 4.29C12.52 4.11 12.27 4 12 4C11.73 4 11.48 4.11 11.29 4.29C11.1 4.47 11 4.73 11 5V11H5C4.73 11 4.48 11.11 4.29 11.29C4.1 11.47 4 11.73 4 12C4 12.27 4.11 12.52 4.29 12.71C4.48 12.89 4.73 13 5 13H11V19C11 19.27 11.11 19.52 11.29 19.71C11.47 19.9 11.73 20 12 20C12.27 20 12.52 19.89 12.71 19.71C12.89 19.52 13 19.27 13 19V13H19C19.27 13 19.52 12.89 19.71 12.71C19.89 12.52 20 12.27 20 12C20 11.73 19.89 11.48 19.71 11.29Z" fill="white"/>
</svg>
