<svg width="1em" height="1em" viewBox="0 0 20 20" fill="none" xmlns="http://www.w3.org/2000/svg">
<g clip-path="url(#clip0)">
<path d="M19.8293 10.8233C19.5884 10.0101 19.0863 9.28719 18.4137 8.77514C17.741 8.2631 16.9177 7.97193 16.0643 7.95185V4.9398C16.0643 4.66872 15.9538 4.41771 15.7731 4.22695C15.5823 4.04623 15.3313 3.93579 15.0602 3.93579H12.0482C12.0382 3.15265 11.7972 2.3896 11.3454 1.74703C10.8635 1.04422 10.1707 0.512093 9.36747 0.230968C8.56426 -0.0501561 7.69076 -0.0702365 6.87751 0.170727C6.06426 0.411691 5.35141 0.903659 4.83936 1.58639C4.32731 2.26912 4.03614 3.08237 4.01606 3.93579H3.01205C2.20884 3.93579 1.44578 4.25707 0.883534 4.81932C0.321285 5.38157 0 6.15466 0 6.94783V16.988C0 17.7912 0.321285 18.5543 0.883534 19.1165C1.44578 19.6788 2.20884 20 3.01205 20H15.0602C15.3313 20 15.5823 19.8896 15.7731 19.7089C15.9639 19.5282 16.0643 19.2671 16.0643 18.996V15.984C16.8474 15.9739 17.6104 15.733 18.253 15.2812C18.9558 14.7992 19.488 14.1065 19.7691 13.3033C20.0502 12.5101 20.0803 11.6366 19.8293 10.8233ZM18.0723 12.239C18.0221 12.5201 17.9116 12.7912 17.751 13.0322C17.5904 13.2731 17.3795 13.4739 17.1386 13.6145C16.8976 13.8053 16.6064 13.9257 16.2952 13.9659C15.9839 14.0061 15.6727 13.9659 15.3916 13.8454C15.241 13.7952 15.0803 13.7751 14.9197 13.7952C14.759 13.8153 14.6084 13.8755 14.4779 13.9759C14.3474 14.0663 14.2369 14.1968 14.1667 14.3374C14.0964 14.478 14.0562 14.6386 14.0562 14.7992V17.992H3.01205C2.74096 17.992 2.48996 17.8816 2.2992 17.7008C2.11847 17.5101 2.00803 17.2591 2.00803 16.988V6.94783C2.00803 6.68679 2.11847 6.42575 2.2992 6.23498C2.48996 6.05426 2.74096 5.94382 3.01205 5.94382H5.2008C5.36145 5.94382 5.52209 5.90366 5.66265 5.83338C5.80321 5.7631 5.93373 5.65265 6.0241 5.52213C6.11446 5.39161 6.1747 5.24101 6.20482 5.08037C6.2249 4.91972 6.20482 4.75908 6.15462 4.60848C6.0743 4.39763 6.0241 4.16671 6.0241 3.93579C6.01406 3.65466 6.06426 3.38358 6.16466 3.12253C6.26506 2.86149 6.4257 2.63057 6.61647 2.42976C6.82731 2.22896 7.08835 2.07836 7.35944 1.988C7.64056 1.90767 7.94177 1.87755 8.22289 1.91772C8.51406 1.96792 8.79518 2.06832 9.03614 2.22896C9.27711 2.39964 9.47791 2.61049 9.62851 2.86149C9.81928 3.11249 9.93976 3.39362 9.97992 3.70486C10.0201 4.01611 9.97992 4.32735 9.85944 4.60848C9.80924 4.76912 9.78916 4.92976 9.81928 5.09041C9.83936 5.26109 9.90964 5.41169 10 5.54221C10.1004 5.67273 10.2309 5.78318 10.3815 5.85346C10.5321 5.92374 10.6928 5.95386 10.8635 5.94382H14.0763V9.13659C14.0763 9.29723 14.1165 9.45788 14.1867 9.59844C14.257 9.739 14.3675 9.86952 14.498 9.95988C14.6285 10.0502 14.7791 10.1105 14.9398 10.1406C15.1004 10.1607 15.261 10.1506 15.4116 10.0904C15.7831 9.9398 16.1948 9.90968 16.5964 10.0101C16.988 10.1105 17.3394 10.3314 17.5904 10.6426C17.7811 10.8635 17.9217 11.1145 18.002 11.3856C18.0924 11.6667 18.1124 11.9579 18.0723 12.239Z" fill="currentColor"/>
</g>
<defs>
<clipPath id="clip0">
<rect width="20" height="20" fill="white"/>
</clipPath>
</defs>
</svg>
