<svg width="1em" height="1em" viewBox="0 0 20 20" fill="none" xmlns="http://www.w3.org/2000/svg">
<g clip-path="url(#clip0)">
<path d="M15.2853 4.78447C15.1576 4.65737 15.0117 4.5575 14.8384 4.48487C14.6742 4.41225 14.4918 4.38501 14.3185 4.38501C14.0449 4.38501 13.7805 4.46672 13.5616 4.61197C13.3336 4.75723 13.1603 4.97511 13.06 5.22023C12.9597 5.46535 12.9323 5.74679 12.9779 6.01007C13.0326 6.27334 13.1603 6.51846 13.3518 6.70911C13.5434 6.89976 13.7896 7.02686 14.0541 7.08133C14.3185 7.1358 14.5921 7.10857 14.8384 6.99963C15.0846 6.89976 15.3035 6.71819 15.4494 6.50031C15.5953 6.27334 15.6774 6.01007 15.6774 5.74679C15.6774 5.56522 15.6409 5.39273 15.5771 5.22931C15.5133 5.05682 15.4129 4.91156 15.2853 4.78447Z" fill="currentColor"/>
<path d="M19.6719 0.971405C19.6263 0.81707 19.5534 0.671814 19.4348 0.562871C19.3162 0.44485 19.1795 0.363144 19.0244 0.32683C17.1548 -0.154332 15.1849 -0.10894 13.3427 0.481165C11.4914 1.06219 9.84977 2.15161 8.60946 3.61326L7.58802 4.8207L5.21684 4.24875C4.64229 4.04903 4.00389 4.06718 3.43846 4.28507C2.87302 4.51203 2.39879 4.93872 2.12519 5.48343L0.118804 9.02406C0.0458448 9.14208 0.00936507 9.28734 0.000245142 9.42352C-0.00887478 9.56877 0.018485 9.70495 0.0823245 9.84113C0.137044 9.96823 0.228243 10.0862 0.337682 10.177C0.447122 10.2678 0.58392 10.3314 0.720719 10.3586L3.52054 10.9578C3.28342 11.675 3.11014 12.4194 3.00982 13.1639C2.99158 13.3 3.00982 13.4453 3.0463 13.5724C3.0919 13.7086 3.16486 13.8266 3.26518 13.9265L6.09236 16.7408C6.17444 16.8225 6.27475 16.8951 6.38419 16.9405C6.49363 16.9859 6.61219 17.0132 6.73075 17.0132C6.75811 17.0132 6.78547 17.0132 6.81283 17.0132C7.58802 16.9405 8.34498 16.7953 9.08369 16.5683L9.66737 19.2919C9.69473 19.4281 9.75857 19.5642 9.84977 19.6732C9.94097 19.7821 10.0504 19.8729 10.1872 19.9274C10.324 19.9818 10.4608 20.0091 10.6067 20.0091C10.7526 20 10.8894 19.9637 11.0171 19.8911L14.5921 17.8847C15.0937 17.5851 15.4859 17.1312 15.7139 16.5865C15.9419 16.0508 15.9875 15.4517 15.8507 14.8797L15.2396 12.374L16.3705 11.3391C17.8479 10.0953 18.9515 8.47027 19.5351 6.62733C20.1097 4.80254 20.1644 2.84158 19.6719 0.971405ZM2.31671 8.84249L3.73941 6.33682C3.83061 6.16432 3.97653 6.03722 4.15893 5.97367C4.34133 5.91012 4.53285 5.91012 4.70613 5.99183L6.27475 6.37313L5.68196 7.07218C5.11652 7.74399 4.63317 8.47027 4.23189 9.25102L2.31671 8.84249ZM14.0358 15.8602C13.972 16.0418 13.8443 16.1961 13.6893 16.305L11.2086 17.6941L10.8165 15.8783C11.6099 15.488 12.3486 14.9887 13.0144 14.4076L13.6893 13.7903L14.0541 15.2973C14.1179 15.4789 14.0997 15.6786 14.0358 15.8602ZM17.6929 6.36405C17.1913 7.77122 16.3158 9.02406 15.1576 9.98638L11.8014 13.064C10.4699 14.2079 8.82833 14.9342 7.08643 15.1521L4.89765 12.9732C5.18948 11.2301 5.94644 9.59601 7.08643 8.24331L8.61858 6.43668C8.63682 6.40037 8.66418 6.37313 8.68242 6.34589L9.98656 4.80254C10.9533 3.66773 12.2118 2.80527 13.6163 2.30595C15.0299 1.80663 16.5438 1.68861 18.0212 1.97004C18.3131 3.43169 18.1945 4.9478 17.6929 6.36405Z" fill="currentColor"/>
</g>
<defs>
<clipPath id="clip0">
<rect width="20" height="20" fill="white"/>
</clipPath>
</defs>
</svg>
