<svg width="14" height="14" viewBox="0 0 14 14" fill="none" xmlns="http://www.w3.org/2000/svg">
<path d="M11.763 11.0721L9.94628 9.2692C10.6514 8.38734 10.9942 7.27521 10.9012 6.14838C10.8081 5.02645 10.2891 3.97802 9.4517 3.22843C8.60945 2.47395 7.51257 2.07221 6.3863 2.1016C5.26004 2.131 4.18764 2.59643 3.38946 3.39011C2.59618 4.18868 2.13588 5.26162 2.1016 6.38844C2.07222 7.51527 2.47376 8.6127 3.22297 9.45047C3.97708 10.2882 5.0201 10.8076 6.14146 10.9007C7.26283 10.9937 8.3793 10.6508 9.26072 9.9453L11.0627 11.7482C11.1068 11.7923 11.1607 11.8315 11.2243 11.856C11.288 11.8805 11.3517 11.9001 11.4153 11.9001C11.479 11.9001 11.5426 11.8854 11.6014 11.8609C11.6602 11.8364 11.714 11.7972 11.763 11.7531C11.8511 11.66 11.9001 11.5376 11.9001 11.4102C11.9001 11.2877 11.8511 11.1652 11.763 11.0721ZM8.94243 8.94585C8.30095 9.58765 7.42932 9.9502 6.51852 9.9502C5.84276 9.9502 5.17679 9.74933 4.61366 9.37209C4.05053 8.99484 3.60982 8.46083 3.35029 7.83372C3.09076 7.20662 3.0222 6.51583 3.15442 5.85443C3.29153 5.18813 3.61471 4.57572 4.0946 4.0956C4.57449 3.61547 5.18659 3.29212 5.85255 3.15984C6.51852 3.02756 7.20896 3.09615 7.83086 3.35581C8.45765 3.61547 8.9914 4.0564 9.36845 4.61982C9.74551 5.18323 9.94628 5.84463 9.94628 6.52562C9.94628 7.43198 9.58391 8.30405 8.94243 8.94585Z" fill="#9FA2AA"/>
</svg>
