<svg width="1em" height="1em" viewBox="0 0 20 20" fill="none" xmlns="http://www.w3.org/2000/svg">
<path d="M5.83108 15.4666L5.58505 15.0313C5.12726 15.2901 4.59011 15.3494 4.10091 15.2106L4.09923 15.2101C3.60659 15.0722 3.19645 14.7437 2.94255 14.2893L2.9426 14.2893L2.9387 14.2826L2.42276 13.3922C2.42267 13.392 2.42257 13.3918 2.42248 13.3917C1.89442 12.4736 2.2111 11.2975 3.11975 10.768C3.5263 10.541 3.75608 10.1114 3.75608 9.67492C3.75608 9.22856 3.50984 8.80552 3.12236 8.58335C2.21313 8.05543 1.89491 6.88082 2.42001 5.96245L2.98347 5.03441L2.98355 5.03446L2.98843 5.02606C3.50891 4.13005 4.68777 3.80441 5.60667 4.33327L5.60801 4.33404C5.79156 4.43893 5.99294 4.49992 6.21441 4.49992C6.8924 4.49992 7.45065 3.943 7.46431 3.25992L7.46441 3.25992V3.24992C7.46441 2.75404 7.66417 2.25727 8.01796 1.90347C8.38347 1.53797 8.88168 1.33325 9.38108 1.33325H10.4311C10.9445 1.33325 11.4481 1.54409 11.8129 1.91373C12.1715 2.29407 12.3694 2.80664 12.3562 3.32044L12.3561 3.32043V3.33325C12.3561 3.51588 12.4186 3.73339 12.5352 3.91156C12.7084 4.1876 12.9779 4.39228 13.2965 4.47539L13.3065 4.47799L13.3165 4.48017C13.6182 4.54576 13.9543 4.50894 14.2458 4.34237C15.1747 3.81155 16.3527 4.1313 16.8811 5.04933L17.3914 5.93825C17.3932 5.94175 17.3949 5.94502 17.3965 5.94799L17.4022 5.97108L17.4301 6.02419C17.9058 6.9293 17.5809 8.06846 16.6976 8.58364C16.5069 8.69308 16.3533 8.84596 16.243 9.03595C16.0621 9.33298 16.024 9.68006 16.1056 9.99279C16.1889 10.3121 16.3973 10.591 16.6913 10.759L16.6927 10.7598C17.1305 11.0081 17.4566 11.4374 17.5898 11.9295C17.7213 12.4234 17.6493 12.9422 17.3856 13.3844C17.3855 13.3847 17.3853 13.385 17.3851 13.3853L16.828 14.3082L16.828 14.3082L16.8243 14.3145C16.2962 15.2188 15.1172 15.5377 14.1972 15.0082L14.191 15.0047L14.1848 15.0013C14.0253 14.9155 13.8187 14.8416 13.5811 14.8416C13.2667 14.8416 12.9474 14.9682 12.7109 15.2047L12.7055 15.2101L12.7003 15.2156C12.4871 15.4421 12.3477 15.7538 12.3477 16.0916C12.3477 17.156 11.4811 18.0166 10.4227 18.0166H9.38108C8.32277 18.0166 7.45608 17.156 7.45608 16.0916V16.0724L7.4546 16.0532C7.44179 15.8867 7.39275 15.6905 7.29403 15.5169C7.12606 15.2018 6.84455 14.9914 6.52396 14.9078C6.20742 14.8252 5.8729 14.8668 5.58301 15.0325L5.83108 15.4666ZM5.83108 15.4666C6.00608 15.3666 6.20608 15.3416 6.39774 15.3916C6.58941 15.4416 6.75608 15.5666 6.85608 15.7583L2.87274 10.3333C1.72274 10.9999 1.32274 12.4833 1.98941 13.6416L2.50608 14.5333C2.82274 15.0999 3.33941 15.5166 3.96441 15.6916C4.58108 15.8666 5.25608 15.7916 5.83108 15.4666ZM16.8175 13.05L16.8221 13.0421C16.9748 12.7784 17.0377 12.4275 16.9265 12.0882C16.84 11.7767 16.634 11.5055 16.3458 11.3408L16.3444 11.34C15.9074 11.0921 15.5816 10.6637 15.4479 10.1726C15.3219 9.67838 15.3913 9.14179 15.6449 8.71262L15.6449 8.71265L15.6491 8.70526C15.813 8.41694 16.0564 8.17346 16.3447 8.00965L16.3448 8.00967L16.3491 8.00717C16.9344 7.66688 17.1457 6.91533 16.8225 6.3214C16.8175 6.31045 16.8126 6.30067 16.8081 6.29214C16.8058 6.28776 16.8035 6.28353 16.8013 6.27953L16.7976 6.26829L16.7719 6.22406L16.2886 5.39073L16.2886 5.39072L16.2865 5.38722C15.9345 4.79144 15.1664 4.57526 14.5631 4.926L14.5621 4.9266C14.1357 5.17585 13.6046 5.25 13.1138 5.12396C12.6292 4.99956 12.2043 4.67628 11.9449 4.23722L11.9441 4.23584C11.7858 3.96995 11.6981 3.65202 11.6896 3.31826C11.6984 2.95405 11.5639 2.63095 11.3363 2.38994L11.3313 2.38475L11.3263 2.3797C11.0881 2.14153 10.7714 1.99992 10.4227 1.99992H9.38108C9.04175 1.99992 8.72477 2.14079 8.49419 2.37136C8.25452 2.61104 8.132 2.93069 8.13108 3.25458C8.11647 4.31277 7.24952 5.16392 6.21096 5.16658C5.8734 5.15913 5.54985 5.06619 5.26572 4.901L5.26573 4.90099L5.26248 4.89913C4.67061 4.56092 3.9034 4.7731 3.55872 5.37086L2.99535 6.29876L2.99529 6.29873L2.99124 6.30566C2.64554 6.89623 2.8673 7.66644 3.4643 8.00787C4.0523 8.35246 4.42274 8.99628 4.42274 9.67492C4.42274 10.3527 4.05322 10.9956 3.45853 11.3405C2.85469 11.6803 2.65351 12.4565 2.99846 13.0506C2.99858 13.0508 2.9987 13.051 2.99882 13.0512L3.5221 13.9566C3.69247 14.2567 3.95368 14.4665 4.27989 14.5624C4.6055 14.6607 4.95461 14.6169 5.24528 14.451C5.53501 14.2865 5.86613 14.1999 6.20608 14.1999C6.37684 14.1999 6.5451 14.2207 6.69108 14.2633L6.69105 14.2633L6.70062 14.2659C7.19025 14.3983 7.61302 14.7228 7.86283 15.1633L7.86673 15.1701L7.87085 15.1769C8.02716 15.4332 8.11534 15.7515 8.12276 16.0891C8.12589 16.784 8.68667 17.3499 9.38108 17.3499H10.4227C11.1156 17.3499 11.6811 16.7844 11.6811 16.0916C11.6811 15.5899 11.8874 15.085 12.2413 14.7301C12.604 14.3749 13.0765 14.1753 13.6126 14.1667C13.9482 14.1746 14.2638 14.2671 14.5413 14.4257L14.5424 14.4263C15.1424 14.7672 15.9116 14.5678 16.261 13.9719L16.8175 13.05L16.8175 13.05Z" fill="currentColor" stroke="currentColor"/>
<path d="M7.37256 9.68324C7.37256 8.28527 8.51447 7.1499 9.90589 7.1499C11.3048 7.1499 12.4392 8.28438 12.4392 9.68324C12.4392 11.0821 11.3047 12.2166 9.90589 12.2166C8.50703 12.2166 7.37256 11.0821 7.37256 9.68324ZM8.03923 9.6749C8.03923 10.7114 8.88174 11.5416 9.90589 11.5416C10.9404 11.5416 11.7726 10.7094 11.7726 9.6749C11.7726 8.63844 10.93 7.80824 9.90589 7.80824C8.87142 7.80824 8.03923 8.64043 8.03923 9.6749Z" fill="currentColor" stroke="currentColor"/>
</svg>
