<svg width="20" height="20" viewBox="0 0 20 20" fill="none" xmlns="http://www.w3.org/2000/svg">
<path d="M9.6999 12.8C9.2999 12.8 8.8999 13.1 8.8999 13.6V14.7C8.8999 15.1 9.1999 15.5 9.6999 15.5C10.1999 15.5 10.4999 15.2 10.4999 14.7V13.6C10.4999 13.2 10.1999 12.8 9.6999 12.8Z" fill="#4F4F4F"/>
<path d="M18.5 7.5C18.5 5.6 17 4 15.1 4H13.3V3.9V3.6C13.3 2.2 12.1 1 10.7 1H8.6C7.2 1 6 2.2 6 3.6V3.9V4H4.4C2.5 4 1 5.6 1 7.5V10.6C1 10.7 1 10.8 1.1 10.9L1 10.8C1 10.8 1.1 13 1.2 13.7C1.2 14.8 1.5 15.9 2 16.7C2.7 17.9 3.6 18.5 4.8 18.5C5.3 18.5 7.6 18.5 9.8 18.5C12 18.5 14.2 18.5 14.8 18.5C16 18.5 16.9 17.9 17.6 16.7C18.1 15.9 18.3 14.8 18.4 13.7C18.4 13 18.6 10.8 18.6 10.8H18.5C18.5 10.7 18.6 10.6 18.6 10.5V7.5H18.5ZM7.5 3.9V3.6C7.5 3 8 2.5 8.6 2.5H10.8C11.4 2.5 11.9 3 11.9 3.6V3.9V4H7.5V3.9ZM2.5 7.5C2.5 6.4 3.4 5.5 4.4 5.5H15.1C16.1 5.5 17 6.4 17 7.5V10.2C15.6 11.1 14 11.7 12.4 12C11.9 11 10.9 10.4 9.8 10.4C8.7 10.4 7.7 11 7.2 12C5.5 11.6 3.9 11 2.5 10.1V7.5ZM16.8 13.6C16.8 14.5 16.5 15.4 16.2 16C15.7 16.8 15.3 17 14.7 17C13.6 17 5.8 17 4.8 17C4.2 17 3.7 16.8 3.3 16C3 15.4 2.7 14.5 2.7 13.6C2.7 13.2 2.6 12.5 2.6 11.9C4.1 12.7 5.8 13.3 7.5 13.5C7.9 13.6 8.2 13.3 8.3 13C8.5 12.3 9.1 11.9 9.7 11.9C10.4 11.9 11 12.4 11.1 13C11.2 13.3 11.5 13.6 11.8 13.6H11.9C13.6 13.4 15.3 12.8 16.8 12C16.9 12.5 16.9 13.3 16.8 13.6Z" fill="#4F4F4F"/>
</svg>
