<svg width="24" height="24" viewBox="0 0 24 24" fill="none" xmlns="http://www.w3.org/2000/svg">
<path d="M14.6999 6.30022C14.5166 6.48715 14.414 6.73847 14.414 7.00022C14.414 7.26198 14.5166 7.5133 14.6999 7.70022L16.2999 9.30022C16.4868 9.48345 16.7381 9.58608 16.9999 9.58608C17.2616 9.58608 17.5129 9.48345 17.6999 9.30022L21.4699 5.53022C21.9727 6.64141 22.1249 7.87946 21.9063 9.07937C21.6877 10.2793 21.1086 11.3841 20.2461 12.2465C19.3837 13.1089 18.2789 13.6881 17.079 13.9067C15.8791 14.1253 14.641 13.9731 13.5299 13.4702L6.61986 20.3802C6.22203 20.778 5.68246 21.0015 5.11986 21.0015C4.55725 21.0015 4.01768 20.778 3.61986 20.3802C3.22203 19.9824 2.99854 19.4428 2.99854 18.8802C2.99854 18.3176 3.22203 17.778 3.61986 17.3802L10.5299 10.4702C10.027 9.35904 9.87477 8.12099 10.0934 6.92108C10.312 5.72117 10.8911 4.61638 11.7536 3.75395C12.616 2.89151 13.7208 2.31239 14.9207 2.09377C16.1206 1.87514 17.3587 2.02739 18.4699 2.53022L14.7099 6.29022L14.6999 6.30022Z" stroke="white" stroke-width="1.4" stroke-linecap="round" stroke-linejoin="round"/>
</svg>
