<svg width="1em" height="1em" viewBox="0 0 20 20" fill="none" xmlns="http://www.w3.org/2000/svg">
<g clip-path="url(#clip0)">
<path d="M18.0001 13.933C16.8945 12.4938 15.4172 11.3743 13.7187 10.7046C14.7036 9.93503 15.4272 8.87556 15.779 7.67616C16.1307 6.47676 16.1006 5.2074 15.6885 4.02799C15.2764 2.84858 14.5126 1.82909 13.4875 1.10945C12.4624 0.389805 11.2362 0 9.99002 0C8.73373 0 7.5076 0.389805 6.49253 1.10945C5.4674 1.83908 4.69353 2.85857 4.29152 4.03798C3.88951 5.21739 3.84931 6.48676 4.20107 7.68616C4.55283 8.88556 5.27645 9.93503 6.26137 10.7146C4.57293 11.3843 3.09554 12.5037 2.00007 13.943C0.894539 15.3823 0.211122 17.0915 0.0101165 18.8906C6.62492e-05 19.0205 0.0101165 19.1504 0.0402673 19.2804C0.0804683 19.4103 0.14077 19.5302 0.221172 19.6302C0.392026 19.8401 0.633232 19.97 0.894539 20C1.1659 20.03 1.4272 19.95 1.63826 19.7801C1.84931 19.6102 1.97997 19.3703 2.01012 19.1104C2.23122 17.1614 3.1659 15.3523 4.64328 14.043C6.12067 12.7336 8.02017 12.004 10.0001 12.004C11.98 12.004 13.8895 12.7236 15.3568 14.043C16.8342 15.3523 17.7689 17.1614 17.99 19.1104C18.0202 19.3603 18.1307 19.5802 18.3217 19.7501C18.5026 19.91 18.7438 20 18.995 20H19.1056C19.3669 19.97 19.6081 19.8401 19.779 19.6302C19.9398 19.4203 20.0202 19.1604 19.99 18.9005C19.7991 17.0915 19.1056 15.3823 18.0001 13.933ZM9.99002 10.005C9.19605 10.005 8.42218 9.77511 7.75886 9.33533C7.09554 8.89555 6.58298 8.27586 6.28147 7.53623C5.96992 6.8066 5.88951 5.997 6.04027 5.22739C6.19102 4.45777 6.58298 3.73813 7.13574 3.17841C7.69856 2.61869 8.41213 2.23888 9.19605 2.08896C9.97997 1.93903 10.784 2.009 11.5177 2.31884C12.2513 2.62869 12.8845 3.13843 13.3267 3.78811C13.7689 4.44778 14.0001 5.21739 14.0001 6.007C14.0001 7.06647 13.578 8.08596 12.8242 8.83558C12.0704 9.57521 11.0553 10.005 9.99002 10.005Z" fill="currentColor"/>
</g>
<defs>
<clipPath id="clip0">
<rect width="20" height="20" fill="white"/>
</clipPath>
</defs>
</svg>
