<svg width="20" height="20" viewBox="0 0 20 20" fill="none" xmlns="http://www.w3.org/2000/svg">
<path d="M10.8332 15.8333C10.8332 16.2936 10.4601 16.6667 9.99984 16.6667C9.5396 16.6667 9.1665 16.2936 9.1665 15.8333C9.1665 15.3731 9.5396 15 9.99984 15C10.4601 15 10.8332 15.3731 10.8332 15.8333Z" fill="#454B60" stroke="#9FA2AA" stroke-width="2" stroke-linecap="round" stroke-linejoin="round"/>
<path d="M10.8332 10.0003C10.8332 10.4606 10.4601 10.8337 9.99984 10.8337C9.5396 10.8337 9.1665 10.4606 9.1665 10.0003C9.1665 9.54009 9.5396 9.16699 9.99984 9.16699C10.4601 9.16699 10.8332 9.54009 10.8332 10.0003Z" fill="#454B60" stroke="#9FA2AA" stroke-width="2" stroke-linecap="round" stroke-linejoin="round"/>
<path d="M10.8332 4.16683C10.8332 4.62707 10.4601 5.00016 9.99984 5.00016C9.5396 5.00016 9.1665 4.62707 9.1665 4.16683C9.1665 3.70659 9.5396 3.3335 9.99984 3.3335C10.4601 3.3335 10.8332 3.70659 10.8332 4.16683Z" fill="#454B60" stroke="#9FA2AA" stroke-width="2" stroke-linecap="round" stroke-linejoin="round"/>
</svg>
