<svg width="32" height="40" viewBox="0 0 32 40" fill="none" xmlns="http://www.w3.org/2000/svg">
<path d="M31.2344 10.5469L23.0312 8.20312L20.6875 0H4.28125C2.33961 0 0.765625 1.57398 0.765625 3.51562V36.4844C0.765625 38.426 2.33961 40 4.28125 40H27.7188C29.6604 40 31.2344 38.426 31.2344 36.4844V10.5469Z" fill="#FC6D64"/>
<path d="M31.2344 10.5469H23.0312C21.7422 10.5469 20.6875 9.49219 20.6875 8.20312V0C20.9922 0 21.2969 0.117188 21.5077 0.351641L30.8827 9.72664C31.1172 9.9375 31.2344 10.2422 31.2344 10.5469Z" fill="#F89680"/>
<path d="M23.0312 18.8281H8.96875C8.32102 18.8281 7.79688 18.304 7.79688 17.6562C7.79688 17.0085 8.32102 16.4844 8.96875 16.4844H23.0312C23.679 16.4844 24.2031 17.0085 24.2031 17.6562C24.2031 18.304 23.679 18.8281 23.0312 18.8281Z" fill="#FFF5F5"/>
<path d="M23.0312 23.5156H8.96875C8.32102 23.5156 7.79688 22.9915 7.79688 22.3438C7.79688 21.696 8.32102 21.1719 8.96875 21.1719H23.0312C23.679 21.1719 24.2031 21.696 24.2031 22.3438C24.2031 22.9915 23.679 23.5156 23.0312 23.5156Z" fill="#FFF5F5"/>
<path d="M23.0312 28.2031H8.96875C8.32102 28.2031 7.79688 27.679 7.79688 27.0312C7.79688 26.3835 8.32102 25.8594 8.96875 25.8594H23.0312C23.679 25.8594 24.2031 26.3835 24.2031 27.0312C24.2031 27.679 23.679 28.2031 23.0312 28.2031Z" fill="#FFF5F5"/>
<path d="M18.3438 32.8906H8.96875C8.32102 32.8906 7.79688 32.3665 7.79688 31.7187C7.79688 31.071 8.32102 30.5469 8.96875 30.5469H18.3438C18.9915 30.5469 19.5156 31.071 19.5156 31.7187C19.5156 32.3665 18.9915 32.8906 18.3438 32.8906Z" fill="#FFF5F5"/>
</svg>
